<svg
  xmlns="http://www.w3.org/2000/svg"
  id="Layer_1"
  data-name="Layer 1"
  viewBox="0 0 128 34"
  height="30"
>
  <defs>
    <style>
      .cls-1 {
        fill: #fff;
      }
    </style>
  </defs>
  <title>logo-ativa</title>
  <path
    class="cls-1"
    d="M69.42,2.82,81.18,31.21h6.56L99.49,2.82H93.43a1.33,1.33,0,0,0-1.18.72l-7.82,20.1L76.62,3.46a1.2,1.2,0,0,0-1.12-.64Z"
  />
  <path
    class="cls-1"
    d="M63.59,2.82H59.37V31.21h6.14V4.45A1.71,1.71,0,0,0,63.59,2.82Z"
  />
  <path
    class="cls-1"
    d="M53.06,2.82A1.72,1.72,0,0,1,55,4.44V8.57H45.1V31.21H39V8.57H31a1.7,1.7,0,0,1-1.87-1.63V2.82Z"
  />
  <path
    class="cls-1"
    d="M102.24,28.81a3.73,3.73,0,0,1-3.5,2.4H94.82l9.94-25.76c1-2.22,2.79-2.56,4.38-2.63h5.69l11,28.39H119L110.17,8.27Z"
  />
  <path
    class="cls-1"
    d="M9,28.81a3.73,3.73,0,0,1-3.5,2.4H1.58L11.52,5.45c1-2.22,2.79-2.56,4.38-2.63h3.19Z"
  />
  <polygon
    class="cls-1"
    points="32.62 31.21 21.59 2.82 20.48 2.82 17.62 10.08 25.79 31.21 32.62 31.21"
  />
</svg>
